<svg xmlns="http://www.w3.org/2000/svg" viewBox="0 0 100 100" preserveAspectRatio="xMidYMid" style="shape-rendering: auto; display: block; background: transparent;" width="200" height="200" xmlns:xlink="http://www.w3.org/1999/xlink"><g><defs>
  <clipPath id="cp-x2uulkbinc-cp">
    <path stroke-width="0" stroke="#000" fill="#fff" d="M50 13L75 30L75 70L50 87L25 70L25 30L50 13Z"></path>
  </clipPath>
</defs>
<path stroke-width="0" stroke="#feffdb" fill="#77ecff" d="M50 13L75 30L75 70L50 87L25 70L25 30L50 13Z"></path><path stroke-width="0" stroke="#feffdb" fill="#77ecff" clip-path="url(#cp-x2uulkbinc-cp)" d="M50 13L75 30L75 70L50 87L58.3 70L58.3 30Z">
  <animate begin="-0.2s" values="M50 13L90 30L90 70L50 87L75 70L75 30Z;M50 13L25 30L25 70L50 87L10 70L10 30Z" keyTimes="0;1" repeatCount="indefinite" dur="1s" attributeName="d"></animate>
  <animate begin="-0.2s" values="#77ecff;#ffffff;#a1beff" keyTimes="0;0.5;1" repeatCount="indefinite" dur="1s" attributeName="fill"></animate>
</path><path stroke-width="0" stroke="#feffdb" fill="#77ecff" clip-path="url(#cp-x2uulkbinc-cp)" d="M50 13L75 30L75 70L50 87L58.3 70L58.3 30Z">
  <animate begin="-0.4s" values="M50 13L90 30L90 70L50 87L75 70L75 30Z;M50 13L25 30L25 70L50 87L10 70L10 30Z" keyTimes="0;1" repeatCount="indefinite" dur="1s" attributeName="d"></animate>
  <animate begin="-0.4s" values="#77ecff;#ffffff;#a1beff" keyTimes="0;0.5;1" repeatCount="indefinite" dur="1s" attributeName="fill"></animate>
</path><path stroke-width="0" stroke="#feffdb" fill="#77ecff" clip-path="url(#cp-x2uulkbinc-cp)" d="M50 13L75 30L75 70L50 87L58.3 70L58.3 30Z">
  <animate begin="-0.6s" values="M50 13L90 30L90 70L50 87L75 70L75 30Z;M50 13L25 30L25 70L50 87L10 70L10 30Z" keyTimes="0;1" repeatCount="indefinite" dur="1s" attributeName="d"></animate>
  <animate begin="-0.6s" values="#77ecff;#ffffff;#a1beff" keyTimes="0;0.5;1" repeatCount="indefinite" dur="1s" attributeName="fill"></animate>
</path><path stroke-width="0" stroke="#feffdb" fill="#77ecff" clip-path="url(#cp-x2uulkbinc-cp)" d="M50 13L75 30L75 70L50 87L58.3 70L58.3 30Z">
  <animate begin="-0.8s" values="M50 13L90 30L90 70L50 87L75 70L75 30Z;M50 13L25 30L25 70L50 87L10 70L10 30Z" keyTimes="0;1" repeatCount="indefinite" dur="1s" attributeName="d"></animate>
  <animate begin="-0.8s" values="#77ecff;#ffffff;#a1beff" keyTimes="0;0.5;1" repeatCount="indefinite" dur="1s" attributeName="fill"></animate>
</path><path stroke-width="0" stroke="#feffdb" fill="#77ecff" clip-path="url(#cp-x2uulkbinc-cp)" d="M50 13L75 30L75 70L50 87L58.3 70L58.3 30Z">
  <animate begin="-1s" values="M50 13L90 30L90 70L50 87L75 70L75 30Z;M50 13L25 30L25 70L50 87L10 70L10 30Z" keyTimes="0;1" repeatCount="indefinite" dur="1s" attributeName="d"></animate>
  <animate begin="-1s" values="#77ecff;#ffffff;#a1beff" keyTimes="0;0.5;1" repeatCount="indefinite" dur="1s" attributeName="fill"></animate>
</path><path stroke-width="0" stroke="#feffdb" fill="#77ecff" d="M25 30L75 30"></path>
<path stroke-width="0" stroke="#feffdb" fill="#77ecff" d="M25 70L75 70"></path><g></g></g><!-- [ldio] generated by https://loading.io --></svg>