<?xml version="1.0" encoding="UTF-8"?> <svg xmlns="http://www.w3.org/2000/svg" width="517.223" height="505.775" viewBox="0 0 517.223 505.775"><defs><style>.a{fill:#0e349f;}.b{fill:#1543bd;}.c,.p{fill:#1a54f8;}.d{fill:none;stroke:#fff;}.e{fill:#fff;}.f{fill:#1e45ac;}.g,.n{fill:#345ed4;}.h{fill:#3f70fc;}.i,.j,.k{fill:#1342c5;}.i{opacity:0.54;}.j{opacity:0.86;}.l{fill:#11379a;}.m{fill:#123eb7;}.n{opacity:0.81;}.o{fill:#799af8;}.p{opacity:0.6;}</style></defs><g transform="translate(-1052.344 -192.13)"><g transform="translate(1249.368 247.746)"><g transform="translate(45.051 18.335)"><path class="a" d="M468.268,132.626l15.574,60.769-53.7,32.161-15.574-60.771Z" transform="translate(-414.564 -132.626)"></path></g><g transform="translate(0 32.16)"><path class="b" d="M446.047,220.673,401,202.339l-15.574-60.77L430.473,159.9Z" transform="translate(-385.422 -141.569)"></path></g><g transform="translate(0 0)"><path class="c" d="M430.473,171.26l-45.051-18.334,53.7-32.16L484.178,139.1Z" transform="translate(-385.422 -120.766)"></path></g></g><g transform="translate(1438.633 192.688)"><g transform="translate(10.277 4.182)"><path class="d" d="M426.815,132.626l3.553,13.862-12.251,7.336-3.553-13.863Z" transform="translate(-414.564 -132.626)"></path></g><g transform="translate(0 7.336)"><path class="d" d="M399.252,159.614l-10.277-4.182-3.553-13.862,10.277,4.182Z" transform="translate(-385.422 -141.569)"></path></g><g transform="translate(0 0)"><path class="d" d="M395.7,132.284,385.422,128.1l12.25-7.336,10.277,4.182Z" transform="translate(-385.422 -120.766)"></path></g></g><g transform="translate(-226.279 479)"><g transform="translate(1438.633 192.688)"><g transform="translate(10.277 4.182)"><path class="d" d="M426.815,132.626l3.553,13.862-12.251,7.336-3.553-13.863Z" transform="translate(-414.564 -132.626)"></path></g><g transform="translate(0 7.336)"><path class="d" d="M399.252,159.614l-10.277-4.182-3.553-13.862,10.277,4.182Z" transform="translate(-385.422 -141.569)"></path></g><g transform="translate(0 0)"><path class="d" d="M395.7,132.284,385.422,128.1l12.25-7.336,10.277,4.182Z" transform="translate(-385.422 -120.766)"></path></g></g></g><g transform="translate(-385.173 229.998)"><g transform="translate(1438.633 192.688)"><g transform="translate(16.323 6.643)"><path class="d" d="M434.023,132.626l5.643,22.019L420.207,166.3l-5.643-22.019Z" transform="translate(-414.564 -132.626)"></path></g><g transform="translate(0 11.653)"><path class="d" d="M407.389,170.231l-16.323-6.643-5.643-22.019,16.323,6.643Z" transform="translate(-385.422 -141.569)"></path></g><g transform="translate(0 0)"><path class="d" d="M401.746,139.061l-16.323-6.643,19.458-11.653,16.324,6.643Z" transform="translate(-385.422 -120.766)"></path></g></g></g><path class="e" d="M433.5,169.176c.167.289-3.712,2.882-10.118,6.842s-15.34,9.285-25.281,15.037-19.013,10.848-25.639,14.43-10.806,5.652-10.973,5.363,3.712-2.882,10.117-6.841,15.342-9.286,25.285-15.042,19.01-10.843,25.635-14.425S433.329,168.887,433.5,169.176Z" transform="translate(850.875 153.394)"></path><g transform="translate(1162.165 495.876)"><g transform="translate(45.052 18.334)"><path class="f" d="M411.86,293.13l15.574,60.77-53.7,32.159-15.573-60.77Z" transform="translate(-358.157 -293.13)"></path></g><g transform="translate(0 32.16)"><path class="g" d="M389.64,381.177l-45.052-18.334-15.574-60.77,45.052,18.334Z" transform="translate(-329.014 -302.074)"></path></g><g transform="translate(0)"><path class="h" d="M374.067,331.764l-45.052-18.334,53.7-32.16L427.77,299.6Z" transform="translate(-329.014 -281.271)"></path></g></g><g transform="translate(1123.682 342.21)"><g transform="translate(45.052 18.334)"><path class="i" d="M411.86,293.13l15.574,60.77-53.7,32.159-15.573-60.77Z" transform="translate(-358.157 -293.13)"></path></g><g transform="translate(0 32.16)"><path class="j" d="M389.64,381.177l-45.052-18.334-15.574-60.77,45.052,18.334Z" transform="translate(-329.014 -302.074)"></path></g><g transform="translate(0)"><path class="k" d="M374.067,331.764l-45.052-18.334,53.7-32.16L427.77,299.6Z" transform="translate(-329.014 -281.271)"></path></g></g><g transform="translate(1455.239 485.682)"><g transform="translate(45.051 18.334)"><path class="l" d="M601.438,286.537l15.572,60.77-53.7,32.161L547.734,318.7Z" transform="translate(-547.734 -286.537)"></path></g><g transform="translate(0 32.16)"><path class="m" d="M579.217,374.585,534.165,356.25l-15.573-60.77,45.051,18.335Z" transform="translate(-518.592 -295.48)"></path></g><g transform="translate(0 0)"><path class="k" d="M563.643,325.172l-45.051-18.335,53.7-32.16,45.052,18.334Z" transform="translate(-518.592 -274.677)"></path></g></g><g transform="translate(1407.55 323.642)"><g transform="translate(45.051 18.334)"><path class="f" d="M601.438,286.537l15.572,60.77-53.7,32.161L547.734,318.7Z" transform="translate(-547.734 -286.537)"></path></g><g transform="translate(0 32.16)"><path class="n" d="M579.217,374.585,534.165,356.25l-15.573-60.77,45.051,18.335Z" transform="translate(-518.592 -295.48)"></path></g><g transform="translate(0 0)"><path class="h" d="M563.643,325.172l-45.051-18.335,53.7-32.16,45.052,18.334Z" transform="translate(-518.592 -274.677)"></path></g></g><g transform="translate(1343.797 435.419)"><path class="o" d="M500.209,242.164l15.573,60.771-53.7,32.16L446.5,274.324Z" transform="translate(-446.504 -242.164)"></path></g><g transform="translate(1298.746 449.246)"><path class="k" d="M477.988,330.212l-45.051-18.334-15.574-60.77,45.051,18.334Z" transform="translate(-417.363 -251.108)"></path></g><g transform="translate(1298.746 417.085)"><path class="c" d="M462.414,280.8l-45.051-18.334,53.7-32.16,45.052,18.334Z" transform="translate(-417.363 -230.305)"></path></g><g transform="translate(1312.659 535.525)"><g transform="translate(45.051 18.334)"><path class="a" d="M500.209,242.164l15.573,60.771-53.7,32.16L446.5,274.324Z" transform="translate(-446.504 -242.164)"></path></g><g transform="translate(0 32.16)"><path class="p" d="M477.988,330.212l-45.051-18.334-15.574-60.77,45.051,18.334Z" transform="translate(-417.363 -251.108)"></path></g><g transform="translate(0 0)"><path class="c" d="M462.414,280.8l-45.051-18.334,53.7-32.16,45.052,18.334Z" transform="translate(-417.363 -230.305)"></path></g></g><path class="e" d="M459.514,277.761c.169.289-3.254,2.619-8.92,6.15s-13.578,8.266-22.39,13.366-16.861,9.6-22.747,12.754-9.606,4.959-9.775,4.67,3.254-2.616,8.92-6.148,13.578-8.266,22.393-13.368,16.857-9.6,22.744-12.752S459.347,277.473,459.514,277.761Z" transform="translate(869.543 212.672)"></path><path class="e" d="M563.462,324.666c.167.288-3.395,2.7-9.285,6.358S540.066,339.6,530.911,344.9s-17.515,9.979-23.625,13.263-9.973,5.17-10.14,4.881,3.392-2.7,9.283-6.358,14.113-8.577,23.271-13.876,17.512-9.977,23.622-13.261S563.293,324.377,563.462,324.666Z" transform="translate(924.937 238.279)"></path><path class="e" d="M457.453,282.622c-.325.079-1.906-5.208-4.2-13.819s-5.3-20.544-8.481-33.758-5.924-25.217-7.795-33.93-2.865-14.139-2.54-14.216,1.9,5.207,4.2,13.818,5.3,20.545,8.484,33.765,5.922,25.211,7.793,33.924S457.777,282.545,457.453,282.622Z" transform="translate(890.67 163.083)"></path><path class="e" d="M367.08,331.545c-.325.079-1.866-5.041-4.1-13.377s-5.148-19.895-8.226-32.693-5.734-24.423-7.538-32.863-2.758-13.7-2.435-13.776,1.866,5.04,4.1,13.377,5.148,19.895,8.226,32.7,5.732,24.418,7.538,32.857S367.4,331.466,367.08,331.545Z" transform="translate(841.728 191.437)"></path><path class="e" d="M559.218,320.835c-.325.079-1.8-4.766-3.922-12.663s-4.894-18.84-7.81-30.963-5.426-23.138-7.124-31.135-2.586-12.983-2.262-13.06,1.8,4.765,3.922,12.661,4.894,18.84,7.81,30.97,5.423,23.132,7.122,31.129S559.542,320.757,559.218,320.835Z" transform="translate(947.261 188.26)"></path><path class="e" d="M461.6,359.443c-.141.3-4.718-1.5-12.006-4.65s-17.28-7.659-28.258-12.769-20.862-9.866-27.964-13.414-11.424-5.9-11.284-6.2,4.718,1.5,12,4.649,17.283,7.66,28.263,12.772,20.858,9.863,27.961,13.412S461.746,359.141,461.6,359.443Z" transform="translate(862.126 237.047)"></path><path class="e" d="M548.918,306.062c-.128.308-4.715-1.291-12.024-4.123s-17.344-6.9-28.368-11.53-20.957-8.948-28.1-12.182-11.494-5.391-11.364-5.7,4.715,1.291,12.024,4.123,17.344,6.9,28.371,11.53,20.953,8.946,28.094,12.182S549.048,305.753,548.918,306.062Z" transform="translate(909.608 209.812)"></path><path class="e" d="M475.384,274.987a4,4,0,1,1-4-4A4,4,0,0,1,475.384,274.987Z" transform="translate(908.691 208.992)"></path><path class="e" d="M455.776,251.289a4,4,0,1,1-4-4A4,4,0,0,1,455.776,251.289Z" transform="translate(897.987 196.054)"></path><path class="e" d="M443.444,280.221a4,4,0,1,1-4-4A4,4,0,0,1,443.444,280.221Z" transform="translate(891.254 211.849)"></path><path class="e" d="M389.369,324.874a4,4,0,1,1-4-4A4,4,0,0,1,389.369,324.874Z" transform="translate(861.733 236.225)"></path><path class="e" d="M365.658,301.279a4,4,0,1,1-4-4A4,4,0,0,1,365.658,301.279Z" transform="translate(847.212 223.343)"></path><path class="e" d="M558.209,292.295a4,4,0,1,1-4-4A4,4,0,0,1,558.209,292.295Z" transform="translate(951.908 216.306)"></path><path class="e" d="M414.538,172.145a4,4,0,1,1-4-4A4,4,0,0,1,414.538,172.145Z" transform="translate(872.538 150.398)"></path><path class="e" d="M546.513,327.129a4,4,0,1,1-4-4A4,4,0,0,1,546.513,327.129Z" transform="translate(945.522 235.323)"></path><g transform="translate(168.472 -7.976)"><path class="o" d="M119.7,167.115l-6.081-11.5v15.038Z" transform="translate(1138.814 104.37)"></path><path class="c" d="M76.06,167.115l6.079-11.5v15.038Z" transform="translate(1170.294 104.37)"></path><path class="o" d="M119.7,233.68l-6.081,9.338v-5.795Z" transform="translate(1138.814 38.945)"></path><path class="c" d="M76.06,233.68l6.079,9.338v-5.795Z" transform="translate(1170.294 38.945)"></path></g><g transform="translate(-84.189 369.024)"><path class="o" d="M119.7,167.115l-6.081-11.5v15.038Z" transform="translate(1138.814 104.37)"></path><path class="c" d="M76.06,167.115l6.079-11.5v15.038Z" transform="translate(1170.294 104.37)"></path><path class="o" d="M119.7,233.68l-6.081,9.338v-5.795Z" transform="translate(1138.814 38.945)"></path><path class="c" d="M76.06,233.68l6.079,9.338v-5.795Z" transform="translate(1170.294 38.945)"></path></g></g></svg> 